<svg xmlns="http://www.w3.org/2000/svg" viewBox="0 0 284.42 58.24"><defs><style>.cls-1{fill:#2aaadb;}.cls-2{fill:#2ea4db;}.cls-3{opacity:0.25;}.cls-3,.cls-8,.cls-9{isolation:isolate;}.cls-4{fill:#282828;}.cls-5{fill:#095b8b;}.cls-6,.cls-8{fill:#fff;}.cls-7{fill:#025385;}.cls-8{opacity:0.5;}.cls-10{fill:#065888;}</style></defs><title>232132121</title><g id="Layer_2" data-name="Layer 2"><g id="Layer_1-2" data-name="Layer 1"><g id="Layer_2-2" data-name="Layer 2"><g id="OBJECTS"><path class="cls-1" d="M42.13,54.08A4.16,4.16,0,1,1,34.37,52a3.42,3.42,0,0,1,.65-.86,4.16,4.16,0,0,1,5.88,0h0a3.42,3.42,0,0,1,.65.86A4.12,4.12,0,0,1,42.13,54.08Z"/><path class="cls-2" d="M34.37,56.16A3.42,3.42,0,0,1,35,55.3a4.16,4.16,0,0,1,5.88,0h0a3.42,3.42,0,0,1,.65.86,3.42,3.42,0,0,1-.65.86A4.16,4.16,0,0,1,35,57h0A3.42,3.42,0,0,1,34.37,56.16Z"/><path class="cls-3" d="M41.56,52H34.37a3.42,3.42,0,0,1,.65-.86,4.16,4.16,0,0,1,5.88,0h0A3.42,3.42,0,0,1,41.56,52Z"/><path class="cls-1" d="M65.94,54.08A4.16,4.16,0,1,1,58.18,52a3.71,3.71,0,0,1,.66-.86,4.16,4.16,0,0,1,7.1,2.94Z"/><path class="cls-2" d="M58.18,56.16a3.71,3.71,0,0,1,.66-.86,4.15,4.15,0,0,1,5.87,0h0a3.71,3.71,0,0,1,.66.86,3.71,3.71,0,0,1-.66.86,4.15,4.15,0,0,1-5.87,0h0A3.71,3.71,0,0,1,58.18,56.16Z"/><path class="cls-3" d="M65.38,52h-7.2a3.71,3.71,0,0,1,.66-.86,4.16,4.16,0,0,1,6.54.86Z"/><path class="cls-4" d="M24.38,8.32l-2,2.08-2,2.08L14.6,18.34a8.29,8.29,0,0,1-2.41-5.86l2-2.08,2-2.08L22,2.47A8.26,8.26,0,0,1,24.38,8.32Z"/><polygon class="cls-5" points="24.38 8.32 22.35 10.4 14.22 10.4 16.25 8.32 24.38 8.32"/><path class="cls-4" d="M80.33,33.28l-9.14,2.08-9.14,2.08L29.86,44.82h0a8.31,8.31,0,0,1-4.37-7.33l18.28-4.16L76,26A8.34,8.34,0,0,1,80.33,33.28Z"/><polygon class="cls-5" points="80.33 33.28 71.19 35.36 34.63 35.36 43.77 33.28 80.33 33.28"/><path class="cls-4" d="M87.55,20.82,76.2,22.88,64.84,25,24.07,32.43A8.31,8.31,0,0,1,19.41,25l11.36-2.08,11.36-2.06L82.9,13.33A8.3,8.3,0,0,1,87.55,20.82Z"/><polygon class="cls-5" points="87.56 20.8 76.2 22.88 30.77 22.88 42.13 20.8 87.56 20.8"/><path class="cls-1" d="M24.38,8.32H4.16A4.16,4.16,0,0,1,4.16,0h11.9a8.31,8.31,0,0,1,8.32,8.3Z"/><path class="cls-6" d="M23.27,4.16H0A4.17,4.17,0,0,1,4.16,0h11.9A8.38,8.38,0,0,1,23.27,4.16Z"/><path class="cls-7" d="M87.55,20.82h-67a8.3,8.3,0,0,1-5.91-2.46,8.4,8.4,0,0,1-2.41-5.86h67a8.31,8.31,0,0,1,8.31,8.31Z"/><path class="cls-1" d="M86.44,16.64H13.31a8.21,8.21,0,0,1-1.12-4.16H79.24A8.32,8.32,0,0,1,86.44,16.64Z"/><path class="cls-1" d="M80.33,33.28H27.73A8.34,8.34,0,0,1,19.41,25H72a8.25,8.25,0,0,1,4,1,8.32,8.32,0,0,1,4.38,7.32Z"/><path class="cls-8" d="M79.22,29.12H20.53A8.21,8.21,0,0,1,19.41,25H72a8.25,8.25,0,0,1,4,1A8.42,8.42,0,0,1,79.22,29.12Z"/><path class="cls-1" d="M74.26,41.6a4.16,4.16,0,0,1-4.16,4.16H33.81a8.33,8.33,0,0,1-4-1h0a8.42,8.42,0,0,1-3.26-3.17,8.2,8.2,0,0,1-1.11-4.16H70.1a4.16,4.16,0,0,1,4.16,4.16Z"/><path class="cls-8" d="M74.26,41.6H26.6a8.2,8.2,0,0,1-1.11-4.16H70.1a4.16,4.16,0,0,1,4.16,4.16Z"/><g class="cls-9"><g class="cls-9"><path class="cls-2" d="M127.49,14.23c0,6.79-5.19,11.21-13.29,11.21h-5.38l-1.38,7H99.83l5.38-26.88h11.37C123.57,5.59,127.49,8.77,127.49,14.23Zm-7.68.65c0-2.27-1.58-3.3-4.23-3.3h-4L110,19.45h4.53C117.89,19.45,119.81,17.84,119.81,14.88Z"/><path class="cls-2" d="M129.29,21.18c0-9.33,6.88-16.13,16.87-16.13,5,0,9,1.8,10.9,5.07l-5.49,4.38a6.53,6.53,0,0,0-5.91-3.15c-5.23,0-8.68,4-8.68,9.33,0,3.61,2.45,6,6.56,6a8.42,8.42,0,0,0,6.57-3.11L154.6,28c-3,3.65-7,5-11.79,5C134.56,33,129.29,28.21,129.29,21.18Z"/></g><path class="cls-5" d="M167.27,30.13l3-5.69a16.87,16.87,0,0,0,8.95,2.65c2.92,0,4.61-.92,4.61-2.38,0-3.61-13.06-1.61-13.06-10.06,0-5.8,4.95-9.6,12.9-9.6a18.76,18.76,0,0,1,9.68,2.3L190.59,13a13.82,13.82,0,0,0-7.38-2c-3.15,0-4.84,1.15-4.84,2.61,0,3.69,13.06,1.58,13.06,9.87,0,5.77-5.07,9.57-12.94,9.57C173.88,33,169.69,31.78,167.27,30.13Z"/><path class="cls-5" d="M224.23,5.59l-5.37,26.88h-7.61L213.32,22H203l-2.07,10.45h-7.61l5.38-26.88h7.61l-2,10.06h10.33l2-10.06Z"/><path class="cls-5" d="M225.43,21.18c0-9.33,6.91-16.13,16.78-16.13,8.26,0,13.36,4.87,13.36,11.83,0,9.33-6.91,16.13-16.78,16.13C230.53,33,225.43,28.13,225.43,21.18Zm22.46-3.84c0-3.57-2.3-6-6.33-6-5.27,0-8.45,4.3-8.45,9.37,0,3.57,2.3,6,6.33,6C244.71,26.71,247.89,22.41,247.89,17.34Z"/><path class="cls-5" d="M284.42,14.23c0,6.79-5.18,11.21-13.29,11.21h-5.38l-1.38,7h-7.6l5.37-26.88h11.37C280.5,5.59,284.42,8.77,284.42,14.23Zm-7.68.65c0-2.27-1.57-3.3-4.23-3.3h-4L267,19.45h4.53C274.82,19.45,276.74,17.84,276.74,14.88Z"/></g><g class="cls-9"><path class="cls-10" d="M102.62,43.3l-1,4.74h7.76l-.38,1.87H101.3l-1,5h9l-.38,1.92H97.73l3.08-15.42H111.7l-.38,1.91Z"/><path class="cls-10" d="M120,41.39h2.2l-2.71,13.5h8.37l-.37,1.92H116.89Z"/></g><g class="cls-9"><path class="cls-10" d="M139.28,43.3,138.33,48h7.76l-.38,1.87H138l-1,5h9l-.38,1.92H134.39l3.08-15.42h10.89L148,43.3Z"/></g><g class="cls-9"><path class="cls-10" d="M153.65,50.49a9,9,0,0,1,9.45-9.28c2.56,0,4.61.86,5.67,2.4L167.18,45A5,5,0,0,0,163,43.17a6.91,6.91,0,0,0-7.09,7.18c0,2.8,1.82,4.68,5.31,4.68a6.39,6.39,0,0,0,4.67-1.83l1.27,1.45A8.07,8.07,0,0,1,161,57C156.36,57,153.65,54.34,153.65,50.49Z"/></g><g class="cls-9"><path class="cls-10" d="M179.39,43.3h-5.27l.38-1.91h12.75l-.39,1.91h-5.27l-2.71,13.51H176.7Z"/><path class="cls-10" d="M200.87,51.79l2.82,5h-2.34l-2.69-4.71h-4.54l-.92,4.71H191l3.09-15.42h5.75c3.61,0,5.68,1.65,5.68,4.51A5.73,5.73,0,0,1,200.87,51.79Zm2.42-5.69c0-1.85-1.32-2.8-3.68-2.8h-3.72l-1.39,6.92h3.81C201.46,50.22,203.29,48.81,203.29,46.1Z"/><path class="cls-10" d="M211.57,50.49a9,9,0,0,1,9.37-9.28c4.6,0,7.27,2.64,7.27,6.5A9,9,0,0,1,218.82,57C214.21,57,211.57,54.34,211.57,50.49ZM226,47.84c0-2.77-1.81-4.67-5.22-4.67a6.88,6.88,0,0,0-7,7.18c0,2.78,1.83,4.68,5.25,4.68A6.87,6.87,0,0,0,226,47.84Z"/><path class="cls-10" d="M250.65,41.39l-3.08,15.42h-1.81l-6.89-11.88-2.36,11.88h-2.2l3.08-15.42h1.81l6.89,11.87,2.36-11.87Z"/><path class="cls-10" d="M259.68,41.39h2.21L258.8,56.81h-2.2Z"/><path class="cls-10" d="M268,50.49a9,9,0,0,1,9.45-9.28c2.56,0,4.61.86,5.67,2.4L281.54,45a5,5,0,0,0-4.23-1.81,6.91,6.91,0,0,0-7.1,7.18c0,2.8,1.83,4.68,5.32,4.68a6.4,6.4,0,0,0,4.67-1.83l1.27,1.45a8.07,8.07,0,0,1-6.1,2.34C270.72,57,268,54.34,268,50.49Z"/></g></g></g></g></g></svg>